<svg width="14" height="14" viewBox="0 0 14 14" fill="none" xmlns="http://www.w3.org/2000/svg">
<g clip-path="url(#clip0_606_916)">
<path d="M7.00521 12.8327C8.61602 12.8327 10.0744 12.1798 11.13 11.1241C12.1856 10.0685 12.8385 8.61017 12.8385 6.99935C12.8385 5.38853 12.1856 3.9302 11.13 2.87456C10.0744 1.81893 8.61602 1.16602 7.00521 1.16602C5.39439 1.16602 3.93606 1.81893 2.88042 2.87456C1.82479 3.9302 1.17188 5.38853 1.17188 6.99935C1.17188 8.61017 1.82479 10.0685 2.88042 11.1241C3.93606 12.1798 5.39439 12.8327 7.00521 12.8327Z" fill="#FFAC13" stroke="#FFAC13" stroke-linejoin="round"/>
<path d="M4.67188 7L6.42187 8.75L9.92187 5.25" stroke="white" stroke-linecap="round" stroke-linejoin="round"/>
</g>
<defs>
<clipPath id="clip0_606_916">
<rect width="14" height="14" fill="white"/>
</clipPath>
</defs>
</svg>
