<svg width="16" height="16" viewBox="0 0 16 16" fill="none" xmlns="http://www.w3.org/2000/svg">
<g clip-path="url(#clip0_40681_18193)">
<path d="M7.94152 0.972656C4.0175 0.972656 0.835815 4.15425 0.835815 8.07836C0.835815 12.0025 4.01741 15.1841 7.94152 15.1841C11.8656 15.1841 15.0472 12.0025 15.0472 8.07836C15.0472 4.15434 11.8656 0.972656 7.94152 0.972656ZM8.53702 12.0187V13.3485H7.25621V12.1248C6.39146 12.084 5.55119 11.8393 5.06169 11.5701L5.44513 10.0608C5.9836 10.3546 6.75041 10.6319 7.59071 10.6319C8.34119 10.6319 8.83892 10.3382 8.83892 9.83245C8.83892 9.34297 8.42288 9.03298 7.46022 8.70664C6.08152 8.24159 5.13516 7.59711 5.13516 6.34081C5.13516 5.19053 5.93463 4.3013 7.31336 4.04025V2.81655H8.57791V3.95052C9.42638 3.97498 10.0137 4.17078 10.4624 4.3747L10.079 5.83497C9.75266 5.67995 9.14894 5.37817 8.21897 5.37817C7.37872 5.37817 7.10944 5.75344 7.10944 6.11237C7.10944 6.52842 7.5581 6.81397 8.67583 7.20556C10.2095 7.75217 10.8214 8.46191 10.8214 9.63666C10.8214 10.7869 10.0219 11.7741 8.53719 12.0188L8.53702 12.0187Z" fill="#FFAC13"/>
</g>
<defs>
<clipPath id="clip0_40681_18193">
<rect width="16" height="16" fill="white"/>
</clipPath>
</defs>
</svg>
