<svg width="20" height="20" viewBox="0 0 20 20" fill="none" xmlns="http://www.w3.org/2000/svg">
<path d="M18.3263 3.125H1.67504C1.2277 3.1283 0.799977 3.3091 0.485887 3.62764C0.171797 3.94618 -0.00295668 4.37641 3.78599e-05 4.82375V15.1775C3.78599e-05 16.115 0.750038 16.875 1.67379 16.875H18.325C19.2513 16.875 19.9988 16.1162 19.9988 15.1775V4.825C19.9988 3.8875 19.2513 3.12625 18.325 3.12625L18.3263 3.125ZM17.9263 4.34125L11.285 10.3125C10.7063 10.8363 10.2763 11.0962 10 11.0962C9.72379 11.0962 9.29379 10.8363 8.71504 10.3125L2.07379 4.34125H17.925H17.9263ZM1.24504 14.8V5.44375L6.43129 10.0563L1.24379 14.8H1.24504ZM2.11629 15.6588L7.32254 10.9713L8.17629 11.73C8.67129 12.1687 9.28254 12.395 10 12.395C10.7213 12.395 11.3288 12.17 11.825 11.73L12.6788 10.9713L17.885 15.6588H2.11629V15.6588ZM18.7563 14.8L13.5688 10.0575L18.7563 5.445V14.8Z" fill="#333333"/>
</svg>
