<svg xmlns="http://www.w3.org/2000/svg" width="26" height="22" viewBox="0 0 26 22" fill="none">
  <path d="M24.3281 4.79516C24.2635 5.31181 24.0266 5.79044 23.6569 6.15146L14.6691 14.9542C14.2174 15.3878 13.6194 15.6295 12.9978 15.6295C12.3762 15.6295 11.7781 15.3878 11.3264 14.9542L2.33695 6.15146C1.96597 5.79141 1.72889 5.31229 1.66582 4.79516C1.65392 4.89038 1.64795 4.98627 1.64795 5.08226V16.9194C1.64795 18.1932 2.7107 19.236 4.01232 19.236H21.9832C23.2832 19.236 24.3476 18.1932 24.3476 16.9194V5.08226C24.3476 4.98326 24.3395 4.88921 24.3281 4.79516ZM14.6691 13.2679L24.0925 4.03946C23.8881 3.65255 23.5837 3.32952 23.2121 3.10508C22.8404 2.88065 22.4156 2.7633 21.9832 2.76566H4.0107C3.0942 2.76566 2.29307 3.28376 1.90307 4.03946L11.3264 13.2679C11.7781 13.7016 12.3762 13.9432 12.9978 13.9432C13.6194 13.9432 14.2174 13.7016 14.6691 13.2679Z" fill="#51A3FD"/>
</svg>