<svg width="26" height="26" viewBox="0 0 26 26" fill="none" xmlns="http://www.w3.org/2000/svg">
<path d="M23.5 23.5C23.5 23.7761 23.2761 24 23 24H3.5C3.22386 24 3 23.7761 3 23.5V6.70432C3 6.31407 3.42713 6.07425 3.76032 6.27743L8.15917 8.95988L12.8464 2.55173C13.0462 2.27865 13.4538 2.27865 13.6536 2.55173L18.3408 8.95988L22.7397 6.27743C23.0729 6.07425 23.5 6.31407 23.5 6.70432V23.5ZM5.27778 21.7366H21.2222V9.85391L18.1298 11.7418C17.9079 11.8773 17.6192 11.8201 17.4657 11.6103L13.25 5.84774L9.03428 11.6157C8.88082 11.8256 8.59204 11.8829 8.37007 11.7474L5.27778 9.85957V21.7366Z" fill="#0E1216"/>
<path d="M17.5133 18.4987H9.01331V16.332H17.5133V18.4987Z" fill="#FFAC3D"/>
</svg>
