<svg width="65" height="15" viewBox="0 0 65 15" fill="none" xmlns="http://www.w3.org/2000/svg">
<path d="M0 2C0 0.89543 0.895431 0 2 0H63C64.1046 0 65 0.895431 65 2V13C65 14.1046 64.1046 15 63 15H2C0.895431 15 0 14.1046 0 13V2Z" fill="url(#paint0_linear_41347_26432)"/>
<path d="M4.79541 11V4.65869H5.77979V10.1475H8.75488V11H4.79541ZM9.90186 11V6.22754H10.8599V11H9.90186ZM10.3853 5.375C10.2212 5.375 10.0806 5.31641 9.96338 5.19922C9.84619 5.08203 9.7876 4.94141 9.7876 4.77734C9.7876 4.61328 9.84619 4.47412 9.96338 4.35986C10.0806 4.24268 10.2212 4.18408 10.3853 4.18408C10.5493 4.18408 10.6899 4.24268 10.8071 4.35986C10.9243 4.47412 10.9829 4.61328 10.9829 4.77734C10.9829 4.94141 10.9243 5.08203 10.8071 5.19922C10.6899 5.31641 10.5493 5.375 10.3853 5.375ZM12.2441 11V6.22754H13.1978V6.96143H13.2725C13.3779 6.69775 13.542 6.49414 13.7646 6.35059C13.9902 6.20703 14.2598 6.13525 14.5732 6.13525C14.79 6.13525 14.9849 6.17041 15.1577 6.24072C15.3306 6.31104 15.4785 6.41064 15.6016 6.53955C15.7275 6.66553 15.8257 6.81494 15.896 6.98779H15.9707C16.0498 6.81494 16.1611 6.66553 16.3047 6.53955C16.4482 6.41064 16.6152 6.31104 16.8057 6.24072C16.999 6.17041 17.2041 6.13525 17.4209 6.13525C17.7432 6.13525 18.0186 6.19824 18.2471 6.32422C18.4756 6.44727 18.6499 6.62598 18.77 6.86035C18.8901 7.09473 18.9502 7.37744 18.9502 7.7085V11H17.9966V7.93701C17.9966 7.71729 17.9629 7.53564 17.8955 7.39209C17.8281 7.24561 17.7256 7.13574 17.5879 7.0625C17.4531 6.98926 17.2832 6.95264 17.0781 6.95264C16.876 6.95264 16.6987 6.99951 16.5464 7.09326C16.397 7.18408 16.2798 7.30713 16.1948 7.4624C16.1128 7.61475 16.0718 7.7876 16.0718 7.98096V11H15.1182V7.84033C15.1182 7.65869 15.0801 7.50195 15.0039 7.37012C14.9307 7.23535 14.8252 7.13281 14.6875 7.0625C14.5498 6.98926 14.3872 6.95264 14.1997 6.95264C14.0093 6.95264 13.8379 7.00244 13.6855 7.10205C13.5361 7.20166 13.4175 7.33643 13.3296 7.50635C13.2417 7.67334 13.1978 7.86084 13.1978 8.06885V11H12.2441ZM20.2993 11V6.22754H21.2573V11H20.2993ZM20.7827 5.375C20.6187 5.375 20.478 5.31641 20.3608 5.19922C20.2437 5.08203 20.1851 4.94141 20.1851 4.77734C20.1851 4.61328 20.2437 4.47412 20.3608 4.35986C20.478 4.24268 20.6187 4.18408 20.7827 4.18408C20.9468 4.18408 21.0874 4.24268 21.2046 4.35986C21.3218 4.47412 21.3804 4.61328 21.3804 4.77734C21.3804 4.94141 21.3218 5.08203 21.2046 5.19922C21.0874 5.31641 20.9468 5.375 20.7827 5.375ZM24.4434 11.0308C23.9219 11.0308 23.5439 10.9312 23.3096 10.7319C23.0781 10.5298 22.9624 10.2002 22.9624 9.74316V6.979H22.2153V6.22754H22.9624V5.02344H23.938V6.22754H24.9619V6.979H23.938V9.51025C23.938 9.76807 23.9893 9.9541 24.0918 10.0684C24.1943 10.1797 24.3643 10.2354 24.6016 10.2354C24.6719 10.2354 24.7319 10.2339 24.7817 10.231C24.8345 10.228 24.8945 10.2236 24.9619 10.2178V10.9824C24.8857 10.9941 24.8037 11.0044 24.7158 11.0132C24.6279 11.0249 24.5371 11.0308 24.4434 11.0308ZM28.0293 11.0923C27.5635 11.0923 27.1636 10.9927 26.8296 10.7935C26.4956 10.5913 26.2378 10.3057 26.0562 9.93652C25.8774 9.56738 25.7881 9.13086 25.7881 8.62695V8.62256C25.7881 8.12451 25.8774 7.68945 26.0562 7.31738C26.2378 6.94531 26.4927 6.65527 26.8208 6.44727C27.1519 6.23926 27.5386 6.13525 27.981 6.13525C28.4263 6.13525 28.8086 6.23486 29.1279 6.43408C29.4502 6.6333 29.6978 6.91309 29.8706 7.27344C30.0435 7.63086 30.1299 8.0498 30.1299 8.53027V8.86426H26.2715V8.18311H29.6553L29.1982 8.81592V8.43359C29.1982 8.09375 29.1455 7.8125 29.04 7.58984C28.9375 7.36426 28.7954 7.1958 28.6138 7.08447C28.4321 6.97314 28.2227 6.91748 27.9854 6.91748C27.748 6.91748 27.5356 6.97607 27.3481 7.09326C27.1636 7.20752 27.0171 7.37744 26.9087 7.60303C26.8032 7.82861 26.7505 8.10547 26.7505 8.43359V8.81592C26.7505 9.12939 26.8032 9.39746 26.9087 9.62012C27.0142 9.84277 27.1636 10.0127 27.3569 10.1299C27.5532 10.2471 27.7847 10.3057 28.0513 10.3057C28.2563 10.3057 28.4321 10.2778 28.5786 10.2222C28.728 10.1636 28.8496 10.0918 28.9434 10.0068C29.04 9.92188 29.106 9.83838 29.1411 9.75635L29.1587 9.72119H30.0815L30.0728 9.76074C30.0317 9.91895 29.96 10.0771 29.8574 10.2354C29.7549 10.3906 29.6187 10.5327 29.4487 10.6616C29.2817 10.7905 29.0796 10.8945 28.8423 10.9736C28.6079 11.0527 28.3369 11.0923 28.0293 11.0923ZM33.0039 11.0791C32.6055 11.0791 32.2568 10.9795 31.958 10.7803C31.6621 10.5781 31.4321 10.2925 31.2681 9.92334C31.1069 9.5542 31.0264 9.11914 31.0264 8.61816V8.60938C31.0264 8.10547 31.1069 7.66895 31.2681 7.2998C31.4292 6.93066 31.6577 6.64648 31.9536 6.44727C32.2495 6.24512 32.5996 6.14404 33.0039 6.14404C33.2236 6.14404 33.4287 6.1792 33.6191 6.24951C33.8096 6.31689 33.978 6.41357 34.1245 6.53955C34.271 6.6626 34.3867 6.81055 34.4717 6.9834H34.542V4.35547H35.5V11H34.542V10.2485H34.4717C34.3779 10.4214 34.2593 10.5708 34.1157 10.6968C33.9722 10.8198 33.8066 10.915 33.6191 10.9824C33.4316 11.0469 33.2266 11.0791 33.0039 11.0791ZM33.2764 10.2617C33.54 10.2617 33.7686 10.1958 33.9619 10.064C34.1553 9.93213 34.3032 9.74316 34.4058 9.49707C34.5083 9.24805 34.5596 8.95508 34.5596 8.61816V8.60938C34.5596 8.26953 34.5068 7.97656 34.4014 7.73047C34.2988 7.48438 34.1509 7.29541 33.9575 7.16357C33.7671 7.02881 33.54 6.96143 33.2764 6.96143C33.0127 6.96143 32.7842 7.02881 32.5908 7.16357C32.4004 7.29541 32.2539 7.48438 32.1514 7.73047C32.0518 7.97363 32.002 8.2666 32.002 8.60938V8.61816C32.002 8.95801 32.0518 9.25098 32.1514 9.49707C32.2539 9.74316 32.4004 9.93213 32.5908 10.064C32.7842 10.1958 33.0127 10.2617 33.2764 10.2617ZM39.4771 11V4.65869H43.4365V5.51123H40.4614V7.51514H43.186V8.3457H40.4614V11H39.4771ZM44.7153 11V4.65869H47.2158C47.6494 4.65869 48.0244 4.73926 48.3408 4.90039C48.6572 5.05859 48.9004 5.28271 49.0703 5.57275C49.2432 5.85986 49.3296 6.19971 49.3296 6.59229V6.60107C49.3296 7.02881 49.2212 7.40527 49.0044 7.73047C48.7876 8.05273 48.4858 8.27979 48.0991 8.41162L49.5186 11H48.3804L47.0884 8.56104C47.0796 8.56104 47.0708 8.56104 47.062 8.56104C47.0532 8.56104 47.0444 8.56104 47.0356 8.56104H45.6997V11H44.7153ZM45.6997 7.76123H47.1191C47.4971 7.76123 47.79 7.66309 47.998 7.4668C48.2061 7.26758 48.3101 6.98779 48.3101 6.62744V6.61865C48.3101 6.26709 48.2017 5.99023 47.9849 5.78809C47.771 5.58594 47.4722 5.48486 47.0884 5.48486H45.6997V7.76123ZM50.7358 11V4.65869H54.7612V5.51123H51.7202V7.36133H54.5986V8.17871H51.7202V10.1475H54.7612V11H50.7358ZM56.1851 11V4.65869H60.2104V5.51123H57.1694V7.36133H60.0479V8.17871H57.1694V10.1475H60.2104V11H56.1851Z" fill="white"/>
<defs>
<linearGradient id="paint0_linear_41347_26432" x1="4.17857" y1="-1.12942e-05" x2="63.0848" y2="9.73014" gradientUnits="userSpaceOnUse">
<stop stop-color="#FE9E46"/>
<stop offset="1" stop-color="#F86C20"/>
</linearGradient>
</defs>
</svg>
