<svg width="60" height="15" viewBox="0 0 60 15" fill="none" xmlns="http://www.w3.org/2000/svg">
<path d="M0 6C0 2.68629 2.68629 0 6 0H54C57.3137 0 60 2.68629 60 6V9C60 12.3137 57.3137 15 54 15H0V6Z" fill="url(#paint0_linear_739_2)"/>
<path d="M2.80859 11V4.65869H3.59961V10.2881H6.6582V11H2.80859ZM7.84473 11V6.2627H8.60938V11H7.84473ZM8.23145 5.34863C8.08789 5.34863 7.96338 5.29736 7.85791 5.19482C7.75537 5.08936 7.7041 4.96484 7.7041 4.82129C7.7041 4.6748 7.75537 4.55029 7.85791 4.44775C7.96338 4.34521 8.08789 4.29395 8.23145 4.29395C8.37793 4.29395 8.50244 4.34521 8.60498 4.44775C8.70752 4.55029 8.75879 4.6748 8.75879 4.82129C8.75879 4.96484 8.70752 5.08936 8.60498 5.19482C8.50244 5.29736 8.37793 5.34863 8.23145 5.34863ZM10.0508 11V6.2627H10.8154V6.9834H10.8857C10.9912 6.72852 11.1523 6.53076 11.3691 6.39014C11.5889 6.24951 11.854 6.1792 12.1646 6.1792C12.3784 6.1792 12.5703 6.21436 12.7402 6.28467C12.9102 6.35498 13.0566 6.45312 13.1797 6.5791C13.3027 6.70215 13.4009 6.8457 13.4741 7.00977H13.5444C13.6294 6.84277 13.7437 6.69775 13.8872 6.57471C14.0308 6.44873 14.1963 6.35205 14.3838 6.28467C14.5742 6.21436 14.7778 6.1792 14.9946 6.1792C15.3169 6.1792 15.5894 6.23926 15.812 6.35938C16.0376 6.47949 16.209 6.65527 16.3262 6.88672C16.4434 7.11523 16.502 7.39502 16.502 7.72607V11H15.7373V7.90186C15.7373 7.66748 15.7007 7.47412 15.6274 7.32178C15.5571 7.1665 15.4487 7.05078 15.3022 6.97461C15.1558 6.89551 14.9712 6.85596 14.7485 6.85596C14.5288 6.85596 14.3369 6.90576 14.1729 7.00537C14.0088 7.10498 13.8813 7.23828 13.7905 7.40527C13.6997 7.56934 13.6543 7.75244 13.6543 7.95459V11H12.8896V7.7832C12.8896 7.5957 12.8486 7.43311 12.7666 7.29541C12.6875 7.15479 12.5732 7.04639 12.4238 6.97021C12.2773 6.89404 12.1045 6.85596 11.9053 6.85596C11.7002 6.85596 11.5142 6.91016 11.3472 7.01855C11.1831 7.12695 11.0527 7.27344 10.9561 7.45801C10.8623 7.63965 10.8154 7.8418 10.8154 8.06445V11H10.0508ZM17.8994 11V6.2627H18.6641V11H17.8994ZM18.2861 5.34863C18.1426 5.34863 18.0181 5.29736 17.9126 5.19482C17.8101 5.08936 17.7588 4.96484 17.7588 4.82129C17.7588 4.6748 17.8101 4.55029 17.9126 4.44775C18.0181 4.34521 18.1426 4.29395 18.2861 4.29395C18.4326 4.29395 18.5571 4.34521 18.6597 4.44775C18.7622 4.55029 18.8135 4.6748 18.8135 4.82129C18.8135 4.96484 18.7622 5.08936 18.6597 5.19482C18.5571 5.29736 18.4326 5.34863 18.2861 5.34863ZM21.7886 11.0352C21.3022 11.0352 20.9492 10.937 20.7295 10.7407C20.5127 10.5444 20.4043 10.2207 20.4043 9.76953V6.89551H19.6572V6.2627H20.4043V5.03662H21.1953V6.2627H22.2324V6.89551H21.1953V9.57617C21.1953 9.85449 21.248 10.0552 21.3535 10.1782C21.459 10.2983 21.6348 10.3584 21.8809 10.3584C21.9482 10.3584 22.0054 10.3569 22.0522 10.354C22.1021 10.3511 22.1621 10.3467 22.2324 10.3408V10.9912C22.1592 11.0029 22.0859 11.0132 22.0127 11.022C21.9395 11.0308 21.8647 11.0352 21.7886 11.0352ZM25.2471 11.0835C24.7959 11.0835 24.4077 10.9839 24.0825 10.7847C23.7603 10.5854 23.5112 10.3042 23.3354 9.94092C23.1626 9.57471 23.0762 9.14404 23.0762 8.64893V8.64453C23.0762 8.15527 23.1626 7.72607 23.3354 7.35693C23.5112 6.98779 23.7588 6.69922 24.0781 6.49121C24.3975 6.2832 24.771 6.1792 25.1987 6.1792C25.6294 6.1792 25.9985 6.27881 26.3062 6.47803C26.6167 6.67725 26.854 6.95557 27.0181 7.31299C27.1851 7.66748 27.2686 8.08057 27.2686 8.55225V8.85107H23.4717V8.24023H26.8774L26.4995 8.79834V8.49512C26.4995 8.12305 26.4438 7.81689 26.3325 7.57666C26.2212 7.33643 26.0674 7.15771 25.8711 7.04053C25.6748 6.92041 25.4492 6.86035 25.1943 6.86035C24.9395 6.86035 24.7109 6.92334 24.5088 7.04932C24.3096 7.17236 24.1514 7.35547 24.0342 7.59863C23.917 7.8418 23.8584 8.14062 23.8584 8.49512V8.79834C23.8584 9.13525 23.9155 9.42383 24.0298 9.66406C24.144 9.90137 24.3066 10.0845 24.5176 10.2134C24.7285 10.3394 24.9775 10.4023 25.2646 10.4023C25.4785 10.4023 25.6646 10.373 25.8228 10.3145C25.981 10.2559 26.1113 10.1812 26.2139 10.0903C26.3164 9.99951 26.3882 9.90723 26.4292 9.81348L26.4468 9.77393H27.2114L27.2026 9.80908C27.1616 9.97021 27.0884 10.127 26.9829 10.2793C26.8804 10.4287 26.7471 10.5649 26.583 10.688C26.4189 10.8081 26.2241 10.9048 25.9985 10.978C25.7759 11.0483 25.5254 11.0835 25.2471 11.0835ZM30.2041 11.0835C29.8057 11.0835 29.457 10.9824 29.1582 10.7803C28.8594 10.5781 28.6279 10.2939 28.4639 9.92773C28.2998 9.55859 28.2178 9.12793 28.2178 8.63574V8.62695C28.2178 8.13184 28.2998 7.70117 28.4639 7.33496C28.6279 6.96875 28.8579 6.68457 29.1538 6.48242C29.4526 6.28027 29.8027 6.1792 30.2041 6.1792C30.4209 6.1792 30.6245 6.21436 30.8149 6.28467C31.0083 6.35205 31.1797 6.44727 31.3291 6.57031C31.4785 6.69336 31.5957 6.83984 31.6807 7.00977H31.751V4.38184H32.5156V11H31.751V10.2441H31.6807C31.584 10.4199 31.4624 10.5708 31.3159 10.6968C31.1694 10.8198 31.0024 10.915 30.8149 10.9824C30.6274 11.0498 30.4238 11.0835 30.2041 11.0835ZM30.3799 10.4067C30.667 10.4067 30.9146 10.335 31.1226 10.1914C31.3306 10.0479 31.4902 9.84424 31.6016 9.58057C31.7129 9.31396 31.7686 8.99902 31.7686 8.63574V8.62695C31.7686 8.26074 31.7129 7.9458 31.6016 7.68213C31.4902 7.41846 31.3306 7.21484 31.1226 7.07129C30.9146 6.92773 30.667 6.85596 30.3799 6.85596C30.0928 6.85596 29.8452 6.92773 29.6372 7.07129C29.4321 7.21191 29.2739 7.41406 29.1626 7.67773C29.0542 7.94141 29 8.25781 29 8.62695V8.63574C29 9.00195 29.0542 9.31836 29.1626 9.58496C29.2739 9.84863 29.4321 10.0522 29.6372 10.1958C29.8452 10.3364 30.0928 10.4067 30.3799 10.4067ZM36.6113 11V4.65869H40.4609V5.37061H37.4023V7.55029H40.2104V8.25342H37.4023V11H36.6113ZM41.7617 11V4.65869H44.1831C44.5903 4.65869 44.9448 4.73779 45.2466 4.896C45.5513 5.05127 45.7871 5.26953 45.9541 5.55078C46.1211 5.83203 46.2046 6.16309 46.2046 6.54395V6.55273C46.2046 6.99219 46.0918 7.37305 45.8662 7.69531C45.6406 8.01758 45.3286 8.2417 44.9302 8.36768L46.3979 11H45.4707L44.1128 8.49072C44.1069 8.49072 44.0996 8.49072 44.0908 8.49072C44.082 8.49072 44.0747 8.49072 44.0688 8.49072H42.5527V11H41.7617ZM42.5527 7.7876H44.1128C44.52 7.7876 44.8335 7.68359 45.0532 7.47559C45.2759 7.26465 45.3872 6.96582 45.3872 6.5791V6.57031C45.3872 6.19238 45.2715 5.89648 45.04 5.68262C44.8086 5.46875 44.4878 5.36182 44.0776 5.36182H42.5527V7.7876ZM47.6416 11V4.65869H51.5703V5.37061H48.4326V7.40527H51.4077V8.1084H48.4326V10.2881H51.5703V11H47.6416ZM53.0029 11V4.65869H56.9316V5.37061H53.7939V7.40527H56.769V8.1084H53.7939V10.2881H56.9316V11H53.0029Z" fill="white"/>
<defs>
<linearGradient id="paint0_linear_739_2" x1="3.85714" y1="-1.12942e-05" x2="58.4466" y2="8.32347" gradientUnits="userSpaceOnUse">
<stop stop-color="#FF900E"/>
<stop offset="1" stop-color="#FF3535"/>
</linearGradient>
</defs>
</svg>
