<svg width="50" height="50" viewBox="0 0 50 50" fill="none" xmlns="http://www.w3.org/2000/svg">
<g clip-path="url(#clip0_619_1626)">
<path d="M25 50C18.3696 50 12.0107 47.3661 7.32233 42.6777C2.63392 37.9893 0 31.6304 0 25C0 18.3696 2.63392 12.0107 7.32233 7.32233C12.0107 2.63392 18.3696 0 25 0C31.6304 0 37.9893 2.63392 42.6777 7.32233C47.3661 12.0107 50 18.3696 50 25C50 31.6304 47.3661 37.9893 42.6777 42.6777C37.9893 47.3661 31.6304 50 25 50ZM22.5786 31.5821L15.4286 24.3464L10.7143 28.85C14.1429 30.6964 18.9464 34.0643 23.0607 39.2857C25.9679 33.8214 34.9286 22.6429 39.2857 21.6429C38.5821 18.825 38.1857 13.5357 39.2857 10.7143C30.35 16.6071 22.5786 31.5821 22.5786 31.5821Z" fill="#1AAD19"/>
</g>
<defs>
<clipPath id="clip0_619_1626">
<rect width="50" height="50" fill="white"/>
</clipPath>
</defs>
</svg>
