<svg width="20" height="20" viewBox="0 0 20 20" fill="none" xmlns="http://www.w3.org/2000/svg">
<path d="M16.0268 7.26655H4.47347C3.7368 7.26655 3.14014 7.86322 3.14014 8.59989V16.3099C3.14014 17.0466 3.7368 17.6432 4.47347 17.6432H16.0268C16.7635 17.6432 17.3601 17.0466 17.3601 16.3099V8.59989C17.3601 7.86655 16.7635 7.26655 16.0268 7.26655ZM16.0268 16.3099H4.47347V8.59989H16.0268V16.3099ZM16.0268 16.9766V16.3099V16.9766ZM7.78347 5.60322C7.78347 4.33322 8.8168 3.29989 10.0868 3.29989H10.4168C11.6868 3.29989 12.7201 4.33322 12.7201 5.60322V5.93655H14.0535V5.60322C14.0535 3.59655 12.4235 1.96655 10.4168 1.96655H10.0868C8.08014 1.96655 6.45014 3.59655 6.45014 5.60322V7.16989H7.78347V5.60322V5.60322Z" fill="black"/>
<path d="M10.2532 10.5532C9.60984 10.5532 9.08984 11.0732 9.08984 11.7166C9.08984 12.2099 9.39651 12.6266 9.82984 12.7966V13.9832C9.82984 14.1732 9.98318 14.3266 10.1732 14.3266H10.3332C10.5232 14.3266 10.6765 14.1732 10.6765 13.9832V12.7999C11.1098 12.6299 11.4165 12.2099 11.4165 11.7199C11.4165 11.0732 10.8932 10.5532 10.2532 10.5532Z" fill="black"/>
</svg>
