<svg width="26" height="26" viewBox="0 0 26 26" fill="none" xmlns="http://www.w3.org/2000/svg">
<path d="M21.672 8.66667V5.41667H4.33866V8.66667H21.672ZM21.672 10.8333H4.33866V20.5833H21.672V10.8333ZM3.25533 3.25H22.7554C23.3537 3.25 23.8387 3.73503 23.8387 4.33333V21.6667C23.8387 22.265 23.3537 22.75 22.7554 22.75H3.25533C2.65703 22.75 2.172 22.265 2.172 21.6667V4.33333C2.172 3.73503 2.65703 3.25 3.25533 3.25ZM11.922 15.1667H18.422V17.3333H7.047L11.922 12.4583V15.1667Z" fill="black"/>
<path d="M11.9166 15.6654H17.9166V16.832H8.24873L11.4166 13.6641V15.1654V15.6654H11.9166Z" fill="#FFAC13" stroke="#FFAC13"/>
</svg>
