<svg
      xmlns="http://www.w3.org/2000/svg"
      width="20"
      height="20"
      viewBox="0 0 20 20"
      fill="none"
    >
      <g clip-path="url(#clip0_37322_70829)">
        <path
          d="M9.99996 18.3332C12.3011 18.3332 14.3845 17.4004 15.8925 15.8924C17.4005 14.3843 18.3333 12.301 18.3333 9.99984C18.3333 7.69867 17.4005 5.61534 15.8925 4.10728C14.3845 2.59925 12.3011 1.6665 9.99996 1.6665C7.69879 1.6665 5.61546 2.59925 4.1074 4.10728C2.59937 5.61534 1.66663 7.69867 1.66663 9.99984C1.66663 12.301 2.59937 14.3843 4.1074 15.8924C5.61546 17.4004 7.69879 18.3332 9.99996 18.3332Z"
          stroke="#46A147"
          stroke-width="1.5"
          stroke-linejoin="round"
        />
        <path
          d="M6.66663 10L9.16663 12.5L14.1666 7.5"
          stroke="#46A147"
          stroke-width="1.5"
          stroke-linecap="round"
          stroke-linejoin="round"
        />
      </g>
      <defs>
        <clipPath id="clip0_37322_70829">
          <rect width="20" height="20" fill="white" />
        </clipPath>
      </defs>
    </svg>