<svg xmlns="http://www.w3.org/2000/svg" width="14" height="14" viewBox="0 0 14 14" fill="none">
  <g clip-path="url(#clip0_40736_24330)">
    <path d="M7.00008 12.8346C8.6109 12.8346 10.0692 12.1817 11.1249 11.1261C12.1805 10.0705 12.8334 8.61212 12.8334 7.0013C12.8334 5.39049 12.1805 3.93215 11.1249 2.87651C10.0692 1.82089 8.6109 1.16797 7.00008 1.16797C5.38927 1.16797 3.93093 1.82089 2.87529 2.87651C1.81967 3.93215 1.16675 5.39049 1.16675 7.0013C1.16675 8.61212 1.81967 10.0705 2.87529 11.1261C3.93093 12.1817 5.38927 12.8346 7.00008 12.8346Z" stroke="#FF9C41" stroke-width="1.5" stroke-linejoin="round"/>
    <path fill-rule="evenodd" clip-rule="evenodd" d="M6.99992 10.7904C7.40262 10.7904 7.72909 10.4639 7.72909 10.0612C7.72909 9.65849 7.40262 9.33203 6.99992 9.33203C6.59721 9.33203 6.27075 9.65849 6.27075 10.0612C6.27075 10.4639 6.59721 10.7904 6.99992 10.7904Z" fill="#FF9C41"/>
    <path d="M7 3.5V8.16667" stroke="#FF9C41" stroke-width="1.5" stroke-linecap="round" stroke-linejoin="round"/>
  </g>
  <defs>
    <clipPath id="clip0_40736_24330">
      <rect width="14" height="14" fill="white"/>
    </clipPath>
  </defs>
</svg>