<svg width="100" height="91" viewBox="0 0 100 91" fill="none" xmlns="http://www.w3.org/2000/svg">
<path d="M80.6812 8.41757C76.8401 7.94829 72.9438 8.25902 69.2257 9.33117C65.5075 10.4033 62.044 12.2148 59.0425 14.6572C52.3629 6.65767 39.0438 4.89778 28.5244 11.1374C15.0852 0.378063 3.48596 5.21776 2.966 5.45775C2.38956 5.72043 1.93789 6.197 1.70649 6.78669C1.4751 7.37638 1.48212 8.03295 1.72607 8.61755C1.8521 8.90647 2.03381 9.16774 2.26082 9.38642C2.48783 9.6051 2.7557 9.77692 3.04913 9.89206C3.34256 10.0072 3.65579 10.0634 3.97094 10.0575C4.2861 10.0515 4.59699 9.98358 4.88588 9.85748C5.28585 9.85748 13.8853 6.2977 24.4847 14.0972C23.4704 15.0184 22.5339 16.0217 21.6848 17.097C18.2376 15.9816 14.5848 15.6505 10.9932 16.128C7.40163 16.6055 3.96214 17.8795 0.926123 19.8569C0.675579 20.0485 0.465998 20.2884 0.309769 20.5625C0.153541 20.8365 0.0538353 21.1391 0.0165468 21.4523C-0.0207417 21.7655 0.00514354 22.083 0.0926724 22.3861C0.180201 22.6891 0.327597 22.9715 0.526147 23.2167C0.718746 23.4833 0.964096 23.7075 1.24697 23.8753C1.52983 24.0431 1.84418 24.151 2.1705 24.1923C2.49681 24.2335 2.82812 24.2073 3.14386 24.1151C3.4596 24.023 3.75303 23.8669 4.00593 23.6566C6.19132 22.2979 8.62757 21.3923 11.1699 20.9938C13.7122 20.5953 16.3087 20.7119 18.805 21.3368C17.8742 23.0777 17.1365 24.9151 16.6052 26.8164C15.7691 29.5917 15.5293 32.5124 15.9015 35.3869C16.2738 38.2614 17.2496 41.0246 18.765 43.4954C20.3045 45.7544 22.3843 47.5926 24.8153 48.843C27.2462 50.0934 29.9512 50.7163 32.6842 50.655H33.0441C34.2375 50.6459 35.4281 50.5389 36.6039 50.335C36.6039 50.335 36.6039 50.615 36.6039 50.7749C35.9367 58.5453 37.8485 66.319 42.0436 72.8936C44.3325 76.6856 47.5496 79.8322 51.3915 82.0365C55.2333 84.2409 59.5733 85.4304 64.0022 85.4928C67.029 85.4638 70.0248 84.8809 72.8417 83.7729L78.4013 90.4125C78.4943 90.5241 78.6104 90.6141 78.7416 90.6763C78.8729 90.7384 79.0161 90.7713 79.1613 90.7725H79.4813C79.6751 90.7071 79.8442 90.5839 79.9658 90.4194C80.0874 90.2549 80.1556 90.057 80.1612 89.8525L80.8012 79.4132L78.4413 81.0931C82.4499 78.6572 85.6977 75.1492 87.818 70.9652C89.9384 66.7811 90.8467 62.0876 90.4406 57.4145C91.7391 54.638 92.4453 51.6216 92.5141 48.5572C92.583 45.4928 92.013 42.4477 90.8406 39.6156C91.856 39.1375 92.8442 38.6034 93.8004 38.0157C95.64 36.9011 97.1712 35.3435 98.2541 33.485C99.337 31.6265 99.9373 29.5264 100 27.3764C100 17.857 92.0005 9.89747 80.8412 8.41757M84.001 37.0558C84.5546 37.9005 85.0491 38.7826 85.4809 39.6956C86.682 42.1993 87.3623 44.9208 87.4808 47.6951C87.5212 48.4012 87.5212 49.109 87.4808 49.815C87.4808 49.815 87.4808 50.135 87.4808 50.295C87.4326 50.8907 87.3254 51.4803 87.1608 52.0549C87.1128 52.2997 87.0459 52.5404 86.9608 52.7748C86.9608 53.2948 86.6408 53.7748 86.4408 54.2547L86.0009 55.1347C85.8116 55.5341 85.5979 55.9215 85.3609 56.2946C84.4092 57.6865 83.1845 58.8704 81.7611 59.7744C80.6648 60.45 79.4088 60.8226 78.1214 60.8543H77.8814C77.2963 60.9154 76.7065 60.9154 76.1215 60.8543C75.4436 60.7061 74.7857 60.4779 74.1616 60.1744C73.1505 59.7132 72.1746 59.1785 71.2418 58.5745L70.7218 58.2145C69.9619 57.7345 69.2419 57.2146 68.5219 56.6546L68.002 56.4146C67.242 55.7746 66.5221 55.1747 65.8421 54.4947C65.0816 53.7742 64.3606 53.0132 63.6822 52.2149C60.9725 49.0947 58.6739 45.6401 56.8427 41.9355C55.9887 40.2724 55.2276 38.5632 54.5628 36.8158C54.0428 35.5359 53.6029 34.296 53.2029 33.136C53.1544 32.9305 53.0874 32.7297 53.0029 32.5361L52.3629 30.3762C52.3629 30.0562 52.3629 29.7363 52.083 29.4563C51.803 29.1763 51.723 28.0164 51.563 27.4564L54.7628 26.6564L56.5627 26.3765H57.5626L59.9625 26.1365H60.2025C61.0824 26.1365 61.9224 26.1365 62.7623 26.1365C66.9354 26.0217 71.0699 26.9623 74.7826 28.8711C78.4953 30.7799 81.6661 33.5951 84.001 37.0558ZM43.0435 64.1741C41.261 59.3005 40.819 54.0378 41.7636 48.9351C44.587 47.9419 47.2745 46.5981 49.7631 44.9353C50.5365 44.4119 51.284 43.8513 52.003 43.2554C54.1116 47.6002 56.8029 51.6372 60.0025 55.2547C55.0661 59.4268 49.2784 62.4709 43.0435 64.1741ZM75.6815 76.7333C72.8941 78.6167 69.6935 79.8001 66.3513 80.1831C63.0092 80.566 59.6239 80.1373 56.4827 78.9332C62.4139 76.6717 67.9285 73.4413 72.8017 69.3738C74.2028 68.2231 75.5382 66.9946 76.8014 65.694C77.1878 65.7134 77.575 65.7134 77.9614 65.694C80.165 65.7526 82.345 65.2283 84.281 64.1741C84.601 63.9741 84.8009 63.7342 85.0809 63.5342C84.4987 66.2966 83.3665 68.9137 81.7517 71.2294C80.1368 73.5451 78.0725 75.5121 75.6815 77.0133M91.1206 33.896C90.3242 34.3905 89.4957 34.8315 88.6407 35.2159C85.8859 30.766 82.0147 27.1142 77.4118 24.6233C72.8089 22.1324 67.6344 20.889 62.4023 21.0168C62.1912 20.2303 61.9375 19.4559 61.6424 18.6969C64.1589 16.5646 67.088 14.974 70.2467 14.0243C73.4055 13.0746 76.7261 12.7863 80.0012 13.1773C88.9207 14.3372 95.0803 20.1768 95.0003 27.3364C94.9377 28.6776 94.5385 29.9814 93.8395 31.1278C93.1405 32.2742 92.1642 33.2261 91.0006 33.896" fill="#FFC04D"/>
</svg>
