<svg width="64" height="64" viewBox="0 0 64 64" fill="none" xmlns="http://www.w3.org/2000/svg">
<g id="&#230;&#149;&#176;&#232;&#175;&#145;_&#229;&#138;&#160;&#232;&#189;&#189; 1" clip-path="url(#clip0_40553_44557)">
<path id="Vector" d="M40.2666 6.66667C40.2666 7.54215 40.0942 8.40905 39.7591 9.21789C39.4241 10.0267 38.933 10.7617 38.314 11.3807C37.6949 11.9998 36.96 12.4908 36.1512 12.8259C35.3423 13.1609 34.4754 13.3333 33.5999 13.3333C32.7245 13.3333 31.8576 13.1609 31.0487 12.8259C30.2399 12.4908 29.5049 11.9998 28.8859 11.3807C28.2668 10.7617 27.7758 10.0267 27.4407 9.21789C27.1057 8.40905 26.9333 7.54215 26.9333 6.66667C26.9333 5.79119 27.1057 4.92428 27.4407 4.11544C27.7758 3.30661 28.2668 2.57168 28.8859 1.95262C29.5049 1.33356 30.2399 0.842501 31.0487 0.50747C31.8576 0.172438 32.7245 0 33.5999 0C34.4754 0 35.3423 0.172438 36.1512 0.50747C36.96 0.842501 37.6949 1.33356 38.314 1.95262C38.933 2.57168 39.4241 3.30661 39.7591 4.11544C40.0942 4.92428 40.2666 5.79119 40.2666 6.66667Z" fill="#FFC04D"/>
<path id="Vector_2" d="M58.9331 31.1984C58.9331 31.4106 58.8488 31.6141 58.6988 31.7641C58.5488 31.9142 58.3453 31.9984 58.1331 31.9984C57.9209 31.9984 57.7174 31.9142 57.5674 31.7641C57.4174 31.6141 57.3331 31.4106 57.3331 31.1984C57.3331 31.0934 57.3538 30.9894 57.394 30.8923C57.4342 30.7952 57.4931 30.707 57.5674 30.6328C57.6417 30.5585 57.7299 30.4995 57.827 30.4593C57.924 30.4191 58.028 30.3984 58.1331 30.3984C58.2382 30.3984 58.3422 30.4191 58.4393 30.4593C58.5363 30.4995 58.6245 30.5585 58.6988 30.6328C58.7731 30.707 58.832 30.7952 58.8722 30.8923C58.9124 30.9894 58.9331 31.0934 58.9331 31.1984Z" fill="#FFC04D"/>
<path id="Vector_3" d="M60 43.4672C60 43.8915 59.8314 44.2985 59.5314 44.5986C59.2313 44.8986 58.8243 45.0672 58.4 45.0672C57.9757 45.0672 57.5687 44.8986 57.2686 44.5986C56.9686 44.2985 56.8 43.8915 56.8 43.4672C56.8 43.0428 56.9686 42.6359 57.2686 42.3358C57.5687 42.0358 57.9757 41.8672 58.4 41.8672C58.8243 41.8672 59.2313 42.0358 59.5314 42.3358C59.8314 42.6359 60 43.0428 60 43.4672Z" fill="#FFC04D"/>
<path id="Vector_4" d="M54.1333 53.068C54.1333 53.7045 53.8804 54.3149 53.4304 54.765C52.9803 55.2151 52.3698 55.468 51.7333 55.468C51.0968 55.468 50.4863 55.2151 50.0362 54.765C49.5862 54.3149 49.3333 53.7045 49.3333 53.068C49.3333 52.4314 49.5862 51.821 50.0362 51.3709C50.4863 50.9208 51.0968 50.668 51.7333 50.668C52.3698 50.668 52.9803 50.9208 53.4304 51.3709C53.8804 51.821 54.1333 52.4314 54.1333 53.068Z" fill="#FFC04D"/>
<path id="Vector_5" d="M36 60.5335C36.0001 60.9888 35.9104 61.4397 35.7362 61.8603C35.5621 62.281 35.3067 62.6632 34.9848 62.9851C34.6629 63.3071 34.2807 63.5625 33.8601 63.7367C33.4395 63.911 32.9886 64.0007 32.5333 64.0007C32.078 64.0007 31.6272 63.911 31.2066 63.7367C30.786 63.5625 30.4038 63.3071 30.0819 62.9851C29.7599 62.6632 29.5046 62.281 29.3304 61.8603C29.1562 61.4397 29.0666 60.9888 29.0667 60.5335C29.0666 60.0783 29.1562 59.6274 29.3304 59.2068C29.5046 58.7861 29.7599 58.4039 30.0819 58.0819C30.4038 57.76 30.786 57.5046 31.2066 57.3303C31.6272 57.1561 32.078 57.0664 32.5333 57.0664C32.9886 57.0664 33.4395 57.1561 33.8601 57.3303C34.2807 57.5046 34.6629 57.76 34.9848 58.0819C35.3067 58.4039 35.5621 58.7861 35.7362 59.2068C35.9104 59.6274 36.0001 60.0783 36 60.5335Z" fill="#FFC04D"/>
<path id="Vector_6" d="M17.8667 52.2667C17.8667 53.3983 17.4172 54.4835 16.617 55.2837C15.8169 56.0838 14.7316 56.5333 13.6 56.5333C12.4684 56.5333 11.3832 56.0838 10.583 55.2837C9.78289 54.4835 9.33337 53.3983 9.33337 52.2667C9.33337 51.1351 9.78289 50.0498 10.583 49.2497C11.3832 48.4495 12.4684 48 13.6 48C14.7316 48 15.8169 48.4495 16.617 49.2497C17.4172 50.0498 17.8667 51.1351 17.8667 52.2667Z" fill="#FFC04D"/>
<path id="Vector_7" d="M11.2002 33.0672C11.2003 33.7326 11.0693 34.3915 10.8147 35.0063C10.5601 35.6211 10.1869 36.1797 9.7164 36.6503C9.24591 37.1208 8.68734 37.4941 8.07259 37.7487C7.45783 38.0034 6.79894 38.1345 6.13353 38.1345C5.46812 38.1345 4.80922 38.0034 4.19447 37.7487C3.57972 37.4941 3.02115 37.1208 2.55066 36.6503C2.08016 36.1797 1.70697 35.6211 1.45238 35.0063C1.19779 34.3915 1.06679 33.7326 1.06686 33.0672C1.06679 32.4018 1.19779 31.7429 1.45238 31.1281C1.70697 30.5133 2.08016 29.9547 2.55066 29.4842C3.02115 29.0136 3.57972 28.6404 4.19447 28.3857C4.80922 28.1311 5.46812 28 6.13353 28C6.79894 28 7.45783 28.1311 8.07259 28.3857C8.68734 28.6404 9.24591 29.0136 9.7164 29.4842C10.1869 29.9547 10.5601 30.5133 10.8147 31.1281C11.0693 31.7429 11.2003 32.4018 11.2002 33.0672Z" fill="#FFC04D"/>
<path id="Vector_8" d="M20.2666 14.1323C20.2666 15.6882 19.6485 17.1804 18.5483 18.2807C17.4481 19.3809 15.9559 19.999 14.3999 19.999C12.844 19.999 11.3518 19.3809 10.2516 18.2807C9.15136 17.1804 8.53327 15.6882 8.53327 14.1323C8.53327 12.5764 9.15136 11.0841 10.2516 9.98393C11.3518 8.88372 12.844 8.26562 14.3999 8.26562C15.9559 8.26562 17.4481 8.88372 18.5483 9.98393C19.6485 11.0841 20.2666 12.5764 20.2666 14.1323Z" fill="#FFC04D"/>
</g>
<defs>
<clipPath id="clip0_40553_44557">
<rect width="64" height="64" fill="white" transform="matrix(-1 0 0 1 64 0)"/>
</clipPath>
</defs>
</svg>
